# xmcd CD database file
#
# Track frame offsets:
#	150
#	14111
#	25260
#	39336
#	51274
#	66494
#	81156
#	95414
#	107698
#	123194
#
# Disc length: 1792 seconds
#
# Revision: 0
# Processed by: cddbd v1.5.2PL0 Copyright (c) Steve Scherf et al.
# Submitted via: CDex 1.72
#
DISCID=8206fe0a
DTITLE=LINDA LOU - LOVE, LINDA LOU
DYEAR=1995
DGENRE=Country
TTITLE0=PUT A LITTLE LOVE AWAY
TTITLE1=ANYTIME
TTITLE2=LONELY AS THE NIGHT IS LONG
TTITLE3=HEARTACHE HEARTBREAK
TTITLE4=ONE DAY AT A TIME
TTITLE5=PRETTY LIES
TTITLE6=EXCEPT FOR YOU
TTITLE7=DANCE ME INTO FALLING INTO LOVE
TTITLE8=LOOKING INTO THE EYES OF LOVE
TTITLE9=AM I BLUE
EXTD=YEAR: 1995
EXTT0=
EXTT1=
EXTT2=
EXTT3=
EXTT4=
EXTT5=
EXTT6=
EXTT7=
EXTT8=
EXTT9=
PLAYORDER=
